<svg width="24" height="24" viewBox="0 0 24 24" fill="none" xmlns="http://www.w3.org/2000/svg">
<path d="M2.569 13.7299C2.709 12.2299 2.999 10.9999 5.619 10.9999H18.379C20.999 10.9999 21.289 12.2299 21.429 13.7299L21.989 19.8199C22.099 20.9899 21.159 21.9999 19.959 21.9999H18.079C16.999 21.9999 16.849 21.5399 16.659 20.9699L16.459 20.3699C16.179 19.5499 15.999 18.9999 14.559 18.9999H9.439C7.999 18.9999 7.789 19.6199 7.539 20.3699L7.339 20.9699C7.149 21.5399 6.999 21.9999 5.919 21.9999H4.039C2.839 21.9999 1.899 20.9899 2.009 19.8199L2.199 17.7599M4 7.99988H3M21 7.99988H20M12 2.99988V4.99988M10.5 4.99988H13.5M6 14.9999H9M15 14.9999H18M15.51 2.82788H8.49C6 2.82788 5.45 4.06788 5.13 5.58788L4 10.9979H20L18.87 5.58788C18.55 4.06788 18 2.82788 15.51 2.82788Z" stroke="black" stroke-width="1.5" stroke-linecap="round" stroke-linejoin="round"/>
</svg>
