<svg width="24" height="24" viewBox="0 0 24 24" fill="none" xmlns="http://www.w3.org/2000/svg">
<path d="M10 17.701H6.21C2.41 17.701 1.25 16.541 1.25 12.741V6.74101C1.25 2.94101 2.41 1.78101 6.21 1.78101H16.74C20.54 1.78101 21.7 2.94101 21.7 6.74101C21.7 7.15101 21.36 7.49101 20.95 7.49101C20.54 7.49101 20.2 7.15101 20.2 6.74101C20.2 3.80101 19.68 3.28101 16.74 3.28101H6.21C3.27 3.28101 2.75 3.80101 2.75 6.74101V12.741C2.75 15.681 3.27 16.201 6.21 16.201H10C10.41 16.201 10.75 16.541 10.75 16.951C10.75 17.361 10.41 17.701 10 17.701Z" fill="black"/>
<path d="M10 22.221C9.59 22.221 9.25 21.881 9.25 21.471V16.941C9.25 16.531 9.59 16.191 10 16.191C10.41 16.191 10.75 16.531 10.75 16.941V21.471C10.75 21.891 10.41 22.221 10 22.221ZM10 13.7H2C1.59 13.7 1.25 13.36 1.25 12.95C1.25 12.54 1.59 12.2 2 12.2H10C10.41 12.2 10.75 12.54 10.75 12.95C10.75 13.36 10.41 13.7 10 13.7Z" fill="black"/>
<path d="M9.99999 22.2191H6.73999C6.32999 22.2191 5.98999 21.8791 5.98999 21.4691C5.98999 21.0591 6.32999 20.7191 6.73999 20.7191H9.99999C10.41 20.7191 10.75 21.0591 10.75 21.4691C10.75 21.8791 10.41 22.2191 9.99999 22.2191ZM19.04 22.2201H15.49C12.72 22.2201 11.78 21.2801 11.78 18.5101V12.8001C11.78 10.0301 12.72 9.09009 15.49 9.09009H19.04C21.81 9.09009 22.75 10.0301 22.75 12.8001V18.5101C22.75 21.2901 21.81 22.2201 19.04 22.2201ZM15.49 10.5901C13.53 10.5901 13.28 10.8401 13.28 12.8001V18.5101C13.28 20.4701 13.53 20.7201 15.49 20.7201H19.04C21 20.7201 21.25 20.4701 21.25 18.5101V12.8001C21.25 10.8401 21 10.5901 19.04 10.5901H15.49Z" fill="black"/>
<path d="M17.3 18.9691C17.04 18.9691 16.78 18.8691 16.59 18.6791C16.4999 18.5871 16.4285 18.4784 16.38 18.3591C16.33 18.2291 16.3 18.0991 16.3 17.9691C16.3 17.7091 16.41 17.4491 16.59 17.2691C16.82 17.0391 17.17 16.9291 17.5 16.9891L17.68 17.0491C17.74 17.0791 17.8 17.1091 17.85 17.1391C17.9871 17.2302 18.0997 17.3535 18.1781 17.4982C18.2566 17.6429 18.2984 17.8045 18.3 17.9691C18.3 18.0991 18.27 18.2291 18.22 18.3591C18.17 18.4791 18.1 18.5891 18.01 18.6791C17.9637 18.7276 17.9096 18.7681 17.85 18.7991C17.797 18.8382 17.74 18.8717 17.68 18.8991C17.62 18.9191 17.56 18.9391 17.5 18.9491C17.43 18.9691 17.37 18.9691 17.3 18.9691Z" fill="black"/>
</svg>
