<svg width="24" height="24" viewBox="0 0 24 24" fill="none" xmlns="http://www.w3.org/2000/svg">
<path d="M21.3701 14L21.7101 10.43C21.9701 7.99 21.2701 6 17.0001 6H7.00007C2.73007 6 2.03007 7.99 2.30007 10.43L3.05007 18.43C3.26007 20.39 3.98007 22 8.00007 22H16.0001C20.0201 22 20.7401 20.39 20.9501 18.43M8.00007 6V5.2C8.00007 3.43 8.00007 2 11.2001 2H12.8001C16.0001 2 16.0001 3.43 16.0001 5.2V6" stroke="black" stroke-width="1.5" stroke-miterlimit="10" stroke-linecap="round" stroke-linejoin="round"/>
<path d="M14 14.02V13C14 12 14 12 13 12H11C10 12 10 12 10 13V14.03C10 15.12 10.02 16 12 16C13.99 16 14 15.11 14 14.02ZM14 14.02C16.7642 13.6759 19.3961 12.6369 21.65 11" stroke="black" stroke-width="1.5" stroke-miterlimit="10" stroke-linecap="round" stroke-linejoin="round"/>
<path d="M2.62109 11.27C4.87109 12.81 7.41109 13.74 10.0011 14.03" stroke="black" stroke-width="1.5" stroke-miterlimit="10" stroke-linecap="round" stroke-linejoin="round"/>
</svg>
