<svg width="24" height="24" viewBox="0 0 24 24" fill="none" xmlns="http://www.w3.org/2000/svg">
<path d="M13.05 19.42C12.51 19.42 11.94 19.37 11.32 19.27L6.62999 18.53C5.14999 18.3 4.00999 17.89 3.15999 17.29C0.969987 15.77 1.09999 13.16 1.37999 11.33L2.11999 6.64C2.79999 2.34 5.01999 0.73 9.31999 1.4L14.01 2.14C16.22 2.49 19.19 3.38 19.38 7.11C19.42 7.75 19.38 8.48 19.24 9.34L18.51 14.03C17.93 17.7 16.22 19.42 13.05 19.42ZM7.52999 2.75C5.14999 2.75 4.06999 3.96 3.59999 6.88L2.85999 11.57C2.39999 14.52 3.23999 15.52 4.01999 16.07C4.67999 16.54 5.60999 16.86 6.85999 17.05L11.55 17.79C15.04 18.34 16.48 17.29 17.03 13.79L17.76 9.1C17.88 8.35 17.92 7.72 17.88 7.19V7.18C17.77 5.08 16.58 4.05 13.77 3.61L9.08999 2.88C8.50999 2.79 7.99999 2.75 7.52999 2.75Z" fill="black"/>
<path d="M14.681 22.749C13.831 22.749 12.871 22.569 11.761 22.199L7.25098 20.699C4.68098 19.849 3.29098 18.629 2.87098 16.849C2.80098 16.549 2.92098 16.229 3.18098 16.059C3.44098 15.889 3.78098 15.889 4.03098 16.069C4.69099 16.539 5.61098 16.859 6.86098 17.049L11.551 17.789C15.041 18.339 16.481 17.289 17.031 13.789L17.761 9.099C17.881 8.349 17.921 7.719 17.881 7.189C17.871 6.929 18.001 6.669 18.231 6.519C18.3431 6.44568 18.473 6.40417 18.6068 6.39888C18.7407 6.3936 18.8735 6.42475 18.991 6.489C21.671 7.919 22.381 10.209 21.221 13.709L19.721 18.219C19.011 20.339 18.081 21.639 16.781 22.289C16.151 22.599 15.461 22.749 14.681 22.749ZM5.73098 18.359C6.21098 18.679 6.85098 18.989 7.72098 19.279L12.231 20.779C13.951 21.349 15.181 21.399 16.101 20.949C17.021 20.489 17.721 19.469 18.291 17.749L19.791 13.239C20.611 10.759 20.291 9.439 19.341 8.549C19.321 8.799 19.281 9.059 19.241 9.339L18.511 14.029C17.831 18.329 15.611 19.939 11.311 19.279L6.62098 18.539C6.31098 18.479 6.01098 18.419 5.73098 18.359ZM8.23998 9.718C6.86998 9.718 5.74998 8.598 5.74998 7.228C5.74998 5.858 6.86998 4.738 8.23998 4.738C9.60998 4.738 10.73 5.858 10.73 7.228C10.73 8.598 9.60998 9.718 8.23998 9.718ZM8.23998 6.248C7.69998 6.248 7.24998 6.688 7.24998 7.238C7.24998 7.788 7.68998 8.228 8.23998 8.228C8.77998 8.228 9.22998 7.788 9.22998 7.238C9.22998 6.688 8.77998 6.248 8.23998 6.248Z" fill="black"/>
</svg>
