<svg width="9" height="8" viewBox="0 0 9 8" fill="none" xmlns="http://www.w3.org/2000/svg">
<path d="M3.32001 0.629997C3.51001 0.629997 3.70001 0.699998 3.85001 0.849998C3.98949 0.991135 4.06771 1.18157 4.06771 1.38C4.06771 1.57843 3.98949 1.76886 3.85001 1.91L1.82001 3.94L3.85001 5.97C3.98949 6.11114 4.06771 6.30157 4.06771 6.5C4.06771 6.69843 3.98949 6.88886 3.85001 7.03C3.56001 7.32 3.08001 7.32 2.79001 7.03L0.230012 4.47C-0.0599878 4.18 -0.0599878 3.7 0.230012 3.41L2.79001 0.849998C2.93001 0.699998 3.13001 0.629997 3.32001 0.629997Z" fill="black"/>
<path d="M1.57294 3.19H8.25708C8.52655 3.19 8.75001 3.53 8.75001 3.94C8.75001 4.35 8.52655 4.69 8.25708 4.69H1.57294C1.30347 4.69 1.08001 4.35 1.08001 3.94C1.08001 3.53 1.30347 3.19 1.57294 3.19Z" fill="black"/>
</svg>
