<svg width="46" height="46" viewBox="0 0 46 46" fill="none" xmlns="http://www.w3.org/2000/svg">
<path d="M28.3036 17.6815L17.6815 28.3036C16.317 26.9391 15.4773 25.0708 15.4773 22.9925C15.4773 18.836 18.836 15.4773 22.9925 15.4773C25.0708 15.4773 26.9391 16.317 28.3036 17.6815Z" stroke="#292D32" stroke-width="3.14888" stroke-linecap="round" stroke-linejoin="round"/>
<path d="M35.2102 9.91413C31.5365 7.14311 27.338 5.63165 22.9925 5.63165C15.5821 5.63165 8.67556 9.9981 3.86827 17.5554C1.97894 20.5154 1.97894 25.4906 3.86827 28.4506C5.52668 31.0536 7.45799 33.2998 9.55724 35.1052" stroke="#292D32" stroke-width="3.14888" stroke-linecap="round" stroke-linejoin="round"/>
<path d="M15.4773 38.8001C17.8704 39.8077 20.4104 40.3535 22.9925 40.3535C30.4029 40.3535 37.3094 35.9871 42.1167 28.4298C44.006 25.4698 44.006 20.4946 42.1167 17.5346C41.424 16.443 40.6682 15.4143 39.8915 14.4487" stroke="#292D32" stroke-width="3.14888" stroke-linecap="round" stroke-linejoin="round"/>
<path d="M30.3607 24.462C29.8149 27.422 27.4007 29.8361 24.4408 30.3819" stroke="#292D32" stroke-width="3.14888" stroke-linecap="round" stroke-linejoin="round"/>
<path d="M17.6814 28.3036L2 43.985" stroke="#292D32" stroke-width="3.14888" stroke-linecap="round" stroke-linejoin="round"/>
<path d="M43.985 2L28.3036 17.6814" stroke="#292D32" stroke-width="3.14888" stroke-linecap="round" stroke-linejoin="round"/>
</svg>
