<svg width="37" height="37" viewBox="0 0 37 37" fill="none" xmlns="http://www.w3.org/2000/svg">
<g clip-path="url(#clip0_59_94)">
<path d="M28.4703 26.457L18.9243 36.003L9.37832 26.457C7.49033 24.569 6.2046 22.1635 5.68371 19.5448C5.16282 16.9261 5.43018 14.2117 6.45196 11.7449C7.47375 9.27807 9.20408 7.16967 11.4241 5.68628C13.6442 4.20289 16.2543 3.41113 18.9243 3.41113C21.5944 3.41113 24.2044 4.20289 26.4245 5.68628C28.6446 7.16967 30.3749 9.27807 31.3967 11.7449C32.4185 14.2117 32.6858 16.9261 32.1649 19.5448C31.644 22.1635 30.3583 24.569 28.4703 26.457ZM18.9243 22.911C20.5156 22.911 22.0417 22.2789 23.167 21.1537C24.2922 20.0284 24.9243 18.5023 24.9243 16.911C24.9243 15.3197 24.2922 13.7936 23.167 12.6684C22.0417 11.5432 20.5156 10.911 18.9243 10.911C17.333 10.911 15.8069 11.5432 14.6817 12.6684C13.5565 13.7936 12.9243 15.3197 12.9243 16.911C12.9243 18.5023 13.5565 20.0284 14.6817 21.1537C15.8069 22.2789 17.333 22.911 18.9243 22.911ZM18.9243 19.911C18.1287 19.911 17.3656 19.5949 16.803 19.0323C16.2404 18.4697 15.9243 17.7067 15.9243 16.911C15.9243 16.1154 16.2404 15.3523 16.803 14.7897C17.3656 14.2271 18.1287 13.911 18.9243 13.911C19.72 13.911 20.483 14.2271 21.0456 14.7897C21.6083 15.3523 21.9243 16.1154 21.9243 16.911C21.9243 17.7067 21.6083 18.4697 21.0456 19.0323C20.483 19.5949 19.72 19.911 18.9243 19.911Z" fill="black"/>
</g>
<defs>
<clipPath id="clip0_59_94">
<rect width="36" height="36" fill="white" transform="translate(0.924316 0.411133)"/>
</clipPath>
</defs>
</svg>
