<svg width="24" height="24" viewBox="0 0 24 24" fill="none" xmlns="http://www.w3.org/2000/svg">
<path d="M12 22.6C10.89 22.6 9.86 22.13 9.09 21.29L2.23 13.75C1.26 12.69 0.960002 10.82 1.54 9.51L4.1 3.75C4.8 2.18 5.97 1.41 7.69 1.41H16.28C18 1.41 19.17 2.17 19.87 3.74L22.43 9.5C23.01 10.81 22.72 12.68 21.75 13.74L14.9 21.29C14.15 22.13 13.11 22.6 12 22.6ZM16.29 2.9H7.7C6.39 2.9 5.86 3.48 5.48 4.35L2.92 10.11C2.58 10.88 2.78 12.11 3.34 12.73L10.2 20.27C10.68 20.8 11.32 21.09 12 21.09C12.68 21.09 13.32 20.8 13.8 20.27L20.65 12.72C21.22 12.09 21.42 10.87 21.07 10.1L18.51 4.34C18.13 3.48 17.6 2.9 16.29 2.9Z" fill="black"/>
<path d="M3.5 8.748C3.09 8.748 2.75 8.408 2.75 7.998C2.75 7.588 3.09 7.248 3.5 7.248L20.5 7.238C20.91 7.238 21.25 7.578 21.25 7.988C21.25 8.398 20.91 8.738 20.5 8.738L3.5 8.748Z" fill="black"/>
</svg>
