<svg width="46" height="40" viewBox="0 0 46 40" fill="none" xmlns="http://www.w3.org/2000/svg">
<path d="M30.673 19.7638C30.673 24.0116 27.2404 27.4442 22.9926 27.4442C18.7447 27.4442 15.3122 24.0116 15.3122 19.7638C15.3122 15.5159 18.7447 12.0834 22.9926 12.0834C27.2404 12.0834 30.673 15.5159 30.673 19.7638Z" stroke="#292D32" stroke-width="3.21806" stroke-linecap="round" stroke-linejoin="round"/>
<path d="M22.9926 37.506C30.5657 37.506 37.624 33.0436 42.5369 25.3203C44.4678 22.2953 44.4678 17.2108 42.5369 14.1857C37.624 6.46238 30.5657 2 22.9926 2C15.4193 2 8.36104 6.46238 3.44813 14.1857C1.51729 17.2108 1.51729 22.2953 3.44813 25.3203C8.36104 33.0436 15.4193 37.506 22.9926 37.506Z" stroke="#292D32" stroke-width="3.21806" stroke-linecap="round" stroke-linejoin="round"/>
</svg>
