<svg width="25" height="24" viewBox="0 0 25 24" fill="none" xmlns="http://www.w3.org/2000/svg">
<path d="M12 0C5.3832 0 0 5.3832 0 12C0 18.6168 5.3832 24 12 24C18.6168 24 24 18.6168 24 12C24 10.6488 23.7648 9.35304 23.3508 8.13984L21.4078 10.0828C21.5338 10.702 21.6 11.3436 21.6 12C21.6 17.2932 17.2932 21.6 12 21.6C6.7068 21.6 2.4 17.2932 2.4 12C2.4 6.7068 6.7068 2.4 12 2.4C13.9596 2.4 15.7823 2.99267 17.3039 4.00547L19.0219 2.2875C17.0443 0.8547 14.622 0 12 0ZM23.1516 1.55156L10.8 13.9031L6.84844 9.95156L5.15156 11.6484L10.8 17.2969L24.8484 3.24844L23.1516 1.55156Z" fill="#2E7D32"/>
</svg>
