<svg width="498" height="97" viewBox="0 0 498 97" fill="none" xmlns="http://www.w3.org/2000/svg">
<path d="M0.2 95L34.888 5.39999H48.968L83.4 95H68.68L48.2 40.984C47.944 40.3867 47.432 38.936 46.664 36.632C45.9813 34.328 45.1707 31.768 44.232 28.952C43.2933 26.136 42.44 23.576 41.672 21.272C40.904 18.8827 40.392 17.3467 40.136 16.664L43.08 16.536C42.568 17.9867 41.928 19.8213 41.16 22.04C40.4773 24.2587 39.7093 26.6053 38.856 29.08C38.088 31.5547 37.32 33.9013 36.552 36.12C35.784 38.2533 35.144 40.0453 34.632 41.496L14.28 95H0.2ZM15.56 72.728L20.68 59.416H61.384L67.272 72.728H15.56ZM123.873 96.28C117.729 96.28 112.225 94.7867 107.361 91.8C102.582 88.728 98.785 84.5893 95.969 79.384C93.153 74.0933 91.745 68.0773 91.745 61.336C91.745 54.5947 93.1103 48.6213 95.841 43.416C98.657 38.1253 102.454 33.9867 107.233 31C112.012 27.928 117.43 26.392 123.489 26.392C126.817 26.392 130.017 26.9467 133.089 28.056C136.246 29.08 139.062 30.5307 141.537 32.408C144.012 34.2 145.932 36.2053 147.297 38.424C148.748 40.5573 149.473 42.7333 149.473 44.952L145.633 45.208V0.279999H158.817V95H145.633V79H148.193C148.193 81.048 147.51 83.096 146.145 85.144C144.78 87.1067 142.945 88.9413 140.641 90.648C138.422 92.3547 135.82 93.72 132.833 94.744C129.932 95.768 126.945 96.28 123.873 96.28ZM125.665 84.888C129.676 84.888 133.217 83.864 136.289 81.816C139.361 79.768 141.75 76.9947 143.457 73.496C145.249 69.912 146.145 65.8587 146.145 61.336C146.145 56.8133 145.249 52.8027 143.457 49.304C141.75 45.72 139.361 42.904 136.289 40.856C133.217 38.808 129.676 37.784 125.665 37.784C121.654 37.784 118.113 38.808 115.041 40.856C111.969 42.904 109.537 45.72 107.745 49.304C106.038 52.8027 105.185 56.8133 105.185 61.336C105.185 65.8587 106.038 69.912 107.745 73.496C109.537 76.9947 111.969 79.768 115.041 81.816C118.113 83.864 121.654 84.888 125.665 84.888Z" fill="#3A3A3A"/>
<path d="M186.95 95V81.944L235.846 16.664L241.478 23.192H190.278V5.39999H256.966V18.328L208.326 83.736L202.566 77.72H258.374V95H186.95ZM306.093 96.28C299.266 96.28 293.122 94.7867 287.661 91.8C282.285 88.728 278.018 84.5467 274.861 79.256C271.789 73.9653 270.253 67.9493 270.253 61.208C270.253 54.296 271.789 48.1947 274.861 42.904C278.018 37.6133 282.285 33.4747 287.661 30.488C293.122 27.416 299.266 25.88 306.093 25.88C313.005 25.88 319.149 27.416 324.525 30.488C329.901 33.4747 334.125 37.6133 337.197 42.904C340.354 48.1947 341.933 54.296 341.933 61.208C341.933 67.9493 340.354 73.9653 337.197 79.256C334.125 84.5467 329.901 88.728 324.525 91.8C319.149 94.7867 313.005 96.28 306.093 96.28ZM306.093 80.536C309.506 80.536 312.493 79.6827 315.053 77.976C317.698 76.2693 319.746 73.9653 321.197 71.064C322.733 68.1627 323.458 64.8773 323.373 61.208C323.458 57.368 322.733 53.9973 321.197 51.096C319.746 48.1093 317.698 45.8053 315.053 44.184C312.493 42.4773 309.506 41.624 306.093 41.624C302.765 41.624 299.778 42.4773 297.133 44.184C294.488 45.8907 292.397 48.1947 290.861 51.096C289.325 53.9973 288.6 57.368 288.685 61.208C288.6 64.8773 289.325 68.1627 290.861 71.064C292.397 73.9653 294.488 76.2693 297.133 77.976C299.778 79.6827 302.765 80.536 306.093 80.536ZM355.608 95V27.288H373.144L373.656 41.112L370.072 42.648C370.925 39.576 372.589 36.8027 375.064 34.328C377.539 31.768 380.483 29.72 383.896 28.184C387.309 26.648 390.851 25.88 394.52 25.88C399.64 25.88 403.907 26.904 407.32 28.952C410.819 31 413.421 34.1147 415.128 38.296C416.92 42.392 417.816 47.512 417.816 53.656V95H399.64V54.936C399.64 51.864 399.213 49.304 398.36 47.256C397.507 45.208 396.227 43.7147 394.52 42.776C392.813 41.8373 390.637 41.4107 387.992 41.496C385.944 41.496 384.067 41.8373 382.36 42.52C380.653 43.1173 379.117 44.0133 377.752 45.208C376.472 46.4027 375.491 47.768 374.808 49.304C374.125 50.84 373.784 52.5467 373.784 54.424V95H364.696C362.819 95 361.112 95 359.576 95C358.04 95 356.717 95 355.608 95ZM467.361 96.28C460.022 96.28 453.58 94.7867 448.033 91.8C442.572 88.8133 438.305 84.7173 435.233 79.512C432.246 74.3067 430.753 68.376 430.753 61.72C430.753 56.4293 431.606 51.608 433.313 47.256C435.02 42.8187 437.409 39.0213 440.481 35.864C443.553 32.7067 447.18 30.2747 451.361 28.568C455.628 26.776 460.278 25.88 465.313 25.88C469.921 25.88 474.145 26.7333 477.985 28.44C481.91 30.0613 485.281 32.408 488.097 35.48C490.998 38.4667 493.217 42.008 494.753 46.104C496.289 50.2 497.014 54.68 496.929 59.544L496.801 65.176H442.401L439.457 53.912H481.825L479.649 56.216V53.528C479.478 51.1387 478.71 49.048 477.345 47.256C476.065 45.464 474.401 44.056 472.353 43.032C470.305 41.9227 468.044 41.368 465.569 41.368C461.729 41.368 458.486 42.136 455.841 43.672C453.281 45.1227 451.318 47.256 449.953 50.072C448.673 52.8027 448.033 56.216 448.033 60.312C448.033 64.3227 448.886 67.864 450.593 70.936C452.3 73.9227 454.732 76.2267 457.889 77.848C461.132 79.4693 464.929 80.28 469.281 80.28C472.268 80.28 474.998 79.8107 477.473 78.872C479.948 77.9333 482.636 76.312 485.537 74.008L494.113 86.168C491.724 88.3013 489.036 90.136 486.049 91.672C483.062 93.208 479.99 94.36 476.833 95.128C473.676 95.896 470.518 96.28 467.361 96.28Z" fill="#373373"/>
</svg>
